<?xml version="1.0" standalone="no"?>
<!DOCTYPE svg PUBLIC "-//W3C//DTD SVG 20010904//EN"
 "http://www.w3.org/TR/2001/REC-SVG-20010904/DTD/svg10.dtd">
<svg version="1.0" xmlns="http://www.w3.org/2000/svg"
 width="376.000000pt" height="349.000000pt" viewBox="0 0 376.000000 349.000000"
 preserveAspectRatio="xMidYMid meet">

<g transform="translate(0.000000,349.000000) scale(0.100000,-0.100000)"
fill="#000000" stroke="none">
<path d="M1716 3244 c-437 -79 -788 -402 -903 -831 -24 -89 -27 -116 -27 -283
-1 -207 11 -272 79 -438 103 -252 316 -474 570 -593 550 -258 1212 -23 1489
528 190 379 142 854 -119 1193 -252 327 -687 497 -1089 424z m-408 -535 c7
-24 46 -161 86 -304 41 -143 76 -253 80 -245 3 8 42 143 86 299 44 157 84 289
90 295 7 7 13 7 20 0 6 -6 47 -141 92 -300 44 -159 84 -292 87 -296 4 -4 45
127 91 293 46 165 86 302 90 304 3 2 11 1 17 -3 7 -5 -19 -112 -81 -332 -80
-279 -96 -325 -113 -328 -22 -3 -18 -16 -124 360 -35 126 -66 228 -69 228 -3
0 -36 -111 -74 -248 -105 -373 -95 -344 -118 -340 -18 3 -33 44 -113 328 -51
179 -90 329 -88 333 10 17 28 -2 41 -44z m1270 26 c3 -13 -20 -15 -182 -15
l-186 0 0 -135 0 -135 180 0 c153 0 180 -2 180 -15 0 -13 -27 -15 -180 -15
l-180 0 0 -150 0 -150 185 0 c158 0 185 -2 185 -15 0 -13 -29 -15 -205 -15
l-205 0 0 328 c0 181 2 331 4 333 2 2 94 3 203 2 170 -2 198 -4 201 -18z
m-983 -977 c113 -273 111 -268 93 -268 -8 0 -24 29 -38 65 l-24 65 -147 0
-147 0 -25 -62 c-14 -37 -32 -64 -41 -66 -15 -3 -16 0 -3 30 8 18 56 133 107
256 67 159 98 222 109 222 11 0 45 -70 116 -242z m456 219 c94 -63 88 -199
-12 -249 -25 -13 -58 -18 -126 -18 l-93 0 0 -110 c0 -91 -3 -110 -15 -110 -13
0 -15 35 -15 255 l0 255 114 0 c101 0 117 -2 147 -23z m413 9 c73 -31 103
-120 64 -196 -33 -65 -69 -80 -190 -80 l-98 0 0 -110 c0 -67 -4 -110 -10 -110
-6 0 -10 92 -10 255 l0 255 105 0 c67 0 118 -5 139 -14z"/>
<path d="M1411 1809 c-34 -83 -60 -153 -58 -155 2 -3 61 -3 130 -2 l125 3 -61
152 c-34 84 -65 153 -68 153 -4 0 -34 -68 -68 -151z"/>
<path d="M1820 1855 l0 -127 98 4 c58 2 106 9 118 18 71 45 71 165 0 210 -12
9 -60 16 -118 18 l-98 4 0 -127z"/>
<path d="M2242 1858 l3 -123 75 -3 c138 -6 195 30 195 123 0 92 -51 125 -190
125 l-86 0 3 -122z"/>
<path d="M655 695 c-16 -14 -60 -37 -97 -51 -82 -31 -118 -69 -118 -123 0 -35
28 -81 49 -81 16 0 20 28 5 40 -19 17 -18 74 2 91 19 16 144 69 144 62 0 -3
-20 -60 -46 -125 -51 -136 -55 -185 -15 -204 28 -14 77 -1 93 26 10 16 13 15
33 -14 24 -36 64 -45 101 -22 30 20 55 69 111 216 24 63 52 128 64 143 25 35
19 63 -11 47 -25 -14 -37 -37 -94 -190 -65 -172 -110 -226 -137 -166 -13 29
10 115 66 247 25 57 32 86 25 93 -17 17 -34 -10 -80 -124 -54 -135 -67 -159
-98 -192 -30 -32 -62 -37 -62 -10 0 24 38 134 84 245 50 122 46 145 -19 92z"/>
<path d="M2726 617 c-13 -28 -32 -75 -42 -103 -16 -47 -16 -53 -2 -67 14 -15
19 -7 54 91 22 58 40 109 42 113 2 4 -4 9 -13 13 -12 4 -22 -7 -39 -47z"/>
<path d="M2837 637 c-8 -21 8 -39 29 -35 27 5 25 42 -2 46 -12 2 -24 -3 -27
-11z"/>
<path d="M1610 600 c-8 -15 -7 -27 5 -50 14 -27 14 -33 -1 -61 -13 -26 -14
-33 -2 -40 8 -6 16 -3 23 7 26 40 33 47 44 39 8 -4 11 -19 8 -39 -3 -17 -9
-50 -12 -73 -14 -78 33 -97 92 -38 39 39 43 41 43 21 0 -25 50 -56 89 -56 20
0 52 8 70 18 45 24 96 95 86 119 -6 16 -10 14 -33 -17 -49 -63 -72 -80 -112
-80 -36 0 -70 23 -70 47 0 6 23 14 52 17 68 9 87 21 104 62 39 92 -71 140
-147 65 -31 -32 -49 -83 -31 -89 17 -5 15 -27 -3 -42 -13 -10 -15 -9 -15 11
l-1 24 -20 -27 c-44 -59 -56 -71 -67 -64 -8 5 -7 18 4 48 20 57 18 82 -11 116
-14 17 -23 37 -19 45 17 45 -54 79 -76 37z m344 -66 c9 -8 16 -21 16 -28 0
-23 -37 -48 -79 -53 -34 -5 -41 -3 -41 11 0 24 30 67 54 76 30 12 33 12 50 -6z"/>
<path d="M2450 544 c-28 -64 -34 -94 -21 -94 21 0 11 -28 -24 -70 -38 -45 -45
-73 -18 -68 11 2 31 36 55 92 42 99 70 136 104 136 34 0 36 -23 8 -96 -14 -37
-24 -81 -22 -98 2 -26 8 -32 31 -34 18 -2 37 4 49 15 19 17 20 17 29 0 14 -24
58 -21 86 4 l22 22 20 -24 c17 -22 22 -23 50 -13 22 9 31 9 34 0 10 -26 39 13
71 92 19 46 44 94 57 108 23 25 63 32 74 14 4 -6 -5 -46 -20 -90 -33 -99 -31
-124 11 -128 25 -2 37 4 60 30 l29 34 31 -33 c36 -38 83 -44 140 -17 29 14 94
93 94 116 0 20 -26 4 -69 -42 -49 -52 -87 -64 -132 -40 -27 15 -25 50 4 50 38
0 97 20 118 41 26 26 25 83 -1 109 -39 39 -106 22 -148 -38 -24 -34 -39 -77
-23 -68 17 11 24 -20 10 -46 l-13 -23 -6 28 -5 29 -32 -46 c-30 -42 -53 -59
-53 -38 0 5 11 42 25 82 30 89 31 102 5 125 -14 13 -30 16 -59 12 -22 -3 -44
0 -50 6 -15 15 -26 2 -50 -62 -15 -41 -17 -57 -9 -71 10 -15 7 -26 -16 -60
-32 -49 -42 -48 -21 3 22 53 19 54 -18 5 -39 -51 -63 -57 -60 -13 l2 30 -25
-30 -25 -30 7 33 6 34 -34 -38 c-39 -41 -64 -40 -47 3 14 37 4 40 -17 4 -24
-40 -35 -39 -23 1 13 47 12 47 -22 0 -28 -39 -49 -53 -49 -34 0 4 12 44 27 88
26 80 26 82 9 109 -16 25 -22 27 -62 22 -24 -2 -47 -1 -50 4 -11 19 -25 7 -44
-37z m847 -20 c20 -31 -9 -64 -65 -71 -38 -5 -42 -4 -42 16 0 28 54 84 76 79
9 -2 23 -12 31 -24z"/>
<path d="M1004 561 c-36 -22 -74 -93 -74 -140 0 -39 23 -87 49 -101 31 -16 93
-12 128 10 42 25 88 94 78 117 -6 16 -10 14 -28 -12 -45 -61 -77 -85 -117 -85
-36 0 -70 23 -70 47 0 6 25 14 55 18 65 8 102 35 111 82 5 25 1 37 -19 57 -31
31 -70 33 -113 7z m81 -24 c27 -21 13 -62 -26 -76 -42 -15 -79 -14 -79 2 1 22
27 60 51 73 30 17 31 17 54 1z"/>
<path d="M1383 561 c-73 -45 -114 -180 -69 -230 23 -25 65 -27 107 -6 27 14
31 14 45 0 23 -23 50 -18 89 17 32 27 34 33 20 41 -12 6 -23 3 -39 -12 -51
-48 -59 -17 -21 87 30 82 31 95 8 90 -10 -2 -26 5 -35 14 -23 23 -65 23 -105
-1z m88 -42 c16 -30 -6 -103 -43 -140 -39 -39 -85 -40 -94 -3 -22 89 98 215
137 143z"/>
<path d="M2248 565 c-37 -20 -78 -108 -78 -165 0 -84 74 -119 138 -65 16 13
32 22 35 19 11 -11 40 14 54 47 l14 33 -26 -24 c-14 -13 -27 -21 -29 -19 -3 3
0 24 6 47 26 104 -33 171 -114 127z m32 -44 c-15 -29 -12 -103 5 -128 15 -21
14 -23 -9 -38 -28 -19 -61 -8 -70 23 -9 26 19 110 45 138 27 29 44 31 29 5z
m45 -80 c-7 -24 -8 -25 -15 -6 -8 20 -3 60 9 80 9 15 14 -43 6 -74z"/>
<path d="M2804 525 c-13 -31 -24 -59 -24 -64 0 -8 31 -25 35 -19 3 5 45 119
45 123 0 1 -7 6 -16 9 -11 4 -21 -8 -40 -49z"/>
</g>
</svg>
